# xmcd
#
# Track frame offsets:
#	150
#	18789
#	51244
#	95560
#	135672
#	169669
#	202892
#	254154
#	283782
#
# Disc length: 4274 seconds
#
# Revision: 0
# Processed by: cddbd v1.5.2PL0 Copyright (c) Steve Scherf et al.
# Submitted via: audiograbber 1.83.01
#
DISCID=7e10b009
DTITLE=Grateful Dead - 92-03-08 Capital Centre, Landover MD
DYEAR=1900
DGENRE=
TTITLE0=Let The Good Times Roll
TTITLE1=Touch Of Grey
TTITLE2=New Minglewood Blues
TTITLE3=Ramble On Rose
TTITLE4=Black Throated Wind
TTITLE5=Loose Lucy
TTITLE6=Desolation Row
TTITLE7=Big Railroad Blues
TTITLE8=The Music Never Stopped
EXTD=
EXTT0=
EXTT1=
EXTT2=
EXTT3=
EXTT4=
EXTT5=
EXTT6=
EXTT7=
EXTT8=
PLAYORDER=
